<svg width="18" height="18" viewBox="0 0 18 18" fill="none" xmlns="http://www.w3.org/2000/svg">
<path fill-rule="evenodd" clip-rule="evenodd" d="M16.147 11.2596C15.413 12.1823 14.4084 12.9122 13.1414 13.4453C11.8785 13.9825 10.4966 14.2491 9.00821 14.2491C8.33574 14.2491 7.64687 14.1835 6.94571 14.0604C5.978 14.7494 4.8914 15.2497 3.68999 15.5614C3.40705 15.6311 3.07083 15.6967 2.68128 15.75H2.64439C2.55828 15.75 2.47627 15.7172 2.40246 15.6557C2.32866 15.5942 2.28355 15.5121 2.26714 15.4096C2.25895 15.385 2.25484 15.3604 2.25484 15.3317C2.25484 15.303 2.25484 15.2784 2.25895 15.2538C2.26305 15.2292 2.27125 15.2087 2.28355 15.1841L2.31226 15.1267C2.31226 15.1267 2.32456 15.1021 2.35326 15.0611C2.37785 15.0201 2.39426 14.9995 2.39836 15.0037C2.40246 15.0077 2.41886 14.9872 2.45167 14.9462C2.48037 14.9011 2.49677 14.8847 2.49677 14.8929C2.53777 14.8478 2.62799 14.7494 2.7674 14.6017C2.90681 14.4541 3.00932 14.3393 3.07083 14.2573L3.07182 14.256C3.13326 14.1741 3.21906 14.0597 3.33325 13.9169C3.44396 13.7734 3.54237 13.6217 3.62438 13.4658C3.70639 13.31 3.78839 13.1378 3.86631 12.9491C2.89861 12.3873 2.13594 11.6943 1.58239 10.8741C1.02882 10.0539 0.75 9.18045 0.75 8.24954C0.75 7.16693 1.11904 6.16223 1.853 5.23952C2.58698 4.31685 3.58747 3.5869 4.8586 3.05379C6.12972 2.51656 7.50746 2.25 9 2.25C10.4925 2.25 11.8703 2.52068 13.1414 3.05379C14.4125 3.59097 15.413 4.31685 16.147 5.23952C16.881 6.15811 17.25 7.16281 17.25 8.24954C17.25 9.33627 16.881 10.3369 16.147 11.2596ZM5.25 6.75V5.25H12.75V6.75H5.25ZM5.25 9V7.5H12.75V9H5.25ZM10.5 9.75H5.25V11.25H10.5V9.75Z" fill="#999999"/>
</svg>
